# xmcd CD database file
#
# Track frame offsets:
#	150
#	15238
#	30773
#	44417
#	63032
#	75389
#	94699
#	107097
#	124217
#	140324
#	162044
#
# Disc length: 2332 seconds
#
# Revision: 0
# Processed by: cddbd v1.5.2PL0 Copyright (c) Steve Scherf et al.
# Submitted via: CDex 1.51
#
DISCID=72091a0b
DTITLE=GADJO MANOUCHE - Swing Machine
DYEAR=2010
DGENRE=Jazz
TTITLE0=Minor Swing
TTITLE1=Some of These Days
TTITLE2=Gypsy Fire
TTITLE3=J'attendrai
TTITLE4=Les Yeux Noirs
TTITLE5=I'll See You in My Dreams
TTITLE6=Daphne
TTITLE7=Swing Gitane
TTITLE8=Sweet Georgia Brown
TTITLE9=Tchavolo Swing
TTITLE10=Liebestraum
EXTD=YEAR: 2010
EXTT0=
EXTT1=
EXTT2=
EXTT3=
EXTT4=
EXTT5=
EXTT6=
EXTT7=
EXTT8=
EXTT9=
EXTT10=
PLAYORDER=
